<?xml version="1.0" encoding="utf-8"?>
<!-- Generator: Adobe Illustrator 20.1.0, SVG Export Plug-In . SVG Version: 6.00 Build 0)  -->
<svg version="1.1" id="Layer_1" xmlns="http://www.w3.org/2000/svg" xmlns:xlink="http://www.w3.org/1999/xlink" x="0px" y="0px"
	 viewBox="0 0 427.8 95.4" enable-background="new 0 0 427.8 95.4" xml:space="preserve">
<g>
	<polygon points="19.6,82.3 0,82.3 0,31.9 19.6,31.9 	"/>
	<path d="M49.2,49.4c-1.1,0.6-2.6,0.6-3.6,0.6v-7l2.4,0.1c0,0,1.2,0.7,1.2,0.7C51.2,45.7,49.7,49.1,49.2,49.4 M69.7,60.6
		c-0.4-1-0.9-2-1.7-2.8c-1.5-1.6-2.8-2-3.8-2.8c2.1-1.2,3.4-1.6,4.8-4.4c1.7-3.2,1.6-7.7,1-11.2c-0.4-2.2-1.8-4.3-3.3-5.9l-1-0.8
		l-1.6-0.6l-2.1-0.2H25.8l0,50.4h19.9c0-6.7,0-20.8,0-20.9c0,0,1.9,0,2.1,0c3.2,0.5,2.5,4.7,2.4,7.7c0,3.5,0,13.1,0,13.1h19.8
		c0,0,0-11.8,0-12.8C70,66.6,70.7,63.3,69.7,60.6"/>
	<path d="M100.8,68.3c0,1.6-1.4,3-3.2,3s-3.2-1.3-3.2-3V45.7c0-1.6,1.4-3,3.2-3s3.2,1.3,3.2,3V68.3z M106.6,31.9H89.9
		c-11.4-0.2-14.1,5.9-14.1,12.7v25.5c-0.2,8,5.2,12.3,14.1,12.2h16.7c11.7,0.2,14.1-5.3,14.1-12.2V44.7
		C120.7,37.9,117.9,31.7,106.6,31.9"/>
	<polygon points="152.2,31.9 152.2,45.5 151.5,45.4 146.3,31.9 126.5,31.9 126.5,82.3 145,82.3 145,64 145.7,64 152.3,82.3 
		171,82.3 171,31.9 	"/>
	<polygon points="320.1,31.9 320.1,47 313.9,31.9 294.6,31.9 294.5,82.3 312.9,82.3 312.9,63 313.5,63 320.8,82.3 338.9,82.3 
		338.9,31.9 	"/>
	<path d="M263.6,59.2l1.3-12.6h0.7l1.4,12.6H263.6z M269.7,82.3h20.2L281,31.9h-31.9l-8.2,50.4h20.6l1.1-12h5.4L269.7,82.3z"/>
	<path fill="#E81938" d="M192,14.4c0-8,6.6-14.4,14.7-14.4c8.1,0,14.8,6.5,14.8,14.4c0,8-6.6,14.5-14.8,14.5
		C198.6,28.9,192,22.4,192,14.4"/>
	<polygon fill="#E81938" points="201.5,82.3 194.7,63.6 194.7,82.3 176.9,82.3 176.8,31.9 236.4,31.9 236.5,82.3 218.8,82.3 
		218.8,63.6 212.3,82.3 	"/>
	<polygon fill="#E81938" points="409.5,95.4 422.8,82.2 422.8,31.7 427.8,31.7 427.8,13.4 395.2,13.4 395.2,31.7 399.8,31.7 
		399.8,74.1 396.8,77.2 384.4,77.2 381.4,74.1 381.4,31.7 386,31.7 386,13.4 353.4,13.4 353.4,31.7 358.4,31.7 358.4,82.2 
		371.7,95.4 	"/>
</g>
</svg>
